<svg width="32" height="16" viewBox="0 0 32 16" fill="none" xmlns="http://www.w3.org/2000/svg">
<g clip-path="url(#clip0_8_26186)">
<path fill-rule="evenodd" clip-rule="evenodd" d="M20.667 13.9998C20.667 13.2635 21.2639 12.6665 22.0003 12.6665C22.7367 12.6665 23.3337 13.2635 23.3337 13.9998C23.3337 14.7362 22.7367 15.3332 22.0003 15.3332C21.2639 15.3332 20.667 14.7362 20.667 13.9998Z" fill="#429F3A"/>
<path fill-rule="evenodd" clip-rule="evenodd" d="M28 13.9998C28 13.2635 28.597 12.6665 29.3333 12.6665C30.0697 12.6665 30.6667 13.2635 30.6667 13.9998C30.6667 14.7362 30.0697 15.3332 29.3333 15.3332C28.597 15.3332 28 14.7362 28 13.9998Z" fill="#429F3A"/>
<path fill-rule="evenodd" clip-rule="evenodd" d="M16 0.666667C16 0.298477 16.2985 0 16.6667 0H19.3333C19.6511 0 19.9247 0.224257 19.987 0.535829L20.547 3.33333H31.3333C31.532 3.33333 31.7203 3.42195 31.847 3.57504C31.9736 3.72812 32.0254 3.92972 31.9882 4.12489L30.9206 9.72322C30.8291 10.1836 30.5787 10.5972 30.213 10.8915C29.8492 11.1844 29.3944 11.3406 28.9276 11.3333H22.4591C21.9923 11.3406 21.5375 11.1844 21.1737 10.8915C20.8082 10.5973 20.5578 10.1839 20.4662 9.72378C20.4662 9.72359 20.4663 9.72397 20.4662 9.72378L19.3525 4.15947C19.348 4.14106 19.3443 4.12236 19.3413 4.10338L18.7869 1.33333H16.6667C16.2985 1.33333 16 1.03486 16 0.666667ZM20.8138 4.66667L21.7739 9.46346C21.8044 9.61692 21.8879 9.75478 22.0097 9.85289C22.1316 9.951 22.2841 10.0031 22.4406 10.0001L22.4533 10H28.9333L28.9461 10.0001C29.1025 10.0031 29.255 9.951 29.3769 9.85289C29.4982 9.75523 29.5815 9.6182 29.6123 9.4656L30.5275 4.66667H20.8138Z" fill="#429F3A"/>
</g>
<path d="M6 3V8M6 13V8M6 8H11M6 8H1" stroke="#429F3A" stroke-width="1.5" stroke-linecap="round" stroke-linejoin="round"/>
<defs>
<clipPath id="clip0_8_26186">
<rect width="16" height="16" fill="white" transform="translate(16)"/>
</clipPath>
</defs>
</svg>
